<?xml version="1.0" encoding="UTF-8"?>
<svg id="Layer_2" data-name="Layer 2" xmlns="http://www.w3.org/2000/svg" width="715.81" height="213.4" viewBox="0 0 715.81 213.4">
  <g id="Layer_1-2" data-name="Layer 1">
    <g isolation="isolate">
      <g isolation="isolate">
        <path d="M87.1,127.28c1.32,2.95,2.47,5.71,3.43,8.3-1.2,1.21-2.8,2.31-4.78,3.3-1.98,1-4.3,1.88-6.95,2.67-.72.18-1.58.42-2.57.72-.99.3-2.12.6-3.38.9-1.75.12-3.83.3-6.27.54-2.44.24-5.31.57-8.62.99-4.69,3.68-8.86,6.57-12.49,8.68-3.64,2.11-6.69,3.46-9.16,4.07l-1.35,1.17c-2.05.9-4.53,1.64-7.44,2.21-2.92.57-6.36,1.07-10.33,1.49-.72-.18-1.46-.62-2.21-1.31-.75-.69-1.61-1.67-2.57-2.93.6-.67,1.35-1.53,2.26-2.58.9-1.06,1.89-2.31,2.98-3.76.9-1.33,1.97-2.4,3.2-3.21,1.23-.81,2.81-1.4,4.74-1.76,1.98-.42,4.18-1.02,6.59-1.8.6-.48,1.34-.98,2.21-1.49.87-.51,1.85-1.13,2.93-1.85,1.38-.66,2.83-1.59,4.33-2.8,1.5-1.2,3.16-2.67,4.96-4.42,2.4-2.35,4.33-4.22,5.77-5.64,1.44-1.41,2.31-2.3,2.62-2.66.48-.84.99-1.61,1.53-2.3.54-.69,1.2-1.34,1.98-1.94.84-1.44,1.89-3.26,3.16-5.46,1.26-2.19,2.77-4.74,4.51-7.62.3-.3.68-.74,1.13-1.31.45-.57.98-1.19,1.58-1.85,1.2-1.38,2.07-3.49,2.62-6.31.54-2.83.81-6.25.81-10.28,0-2.77-.71-5.65-2.12-8.66-1.41-3.01-3.59-6.19-6.54-9.56-2.46-2.77-5.08-5.25-7.84-7.44-2.76-2.19-5.56-3.98-8.38-5.37-2.16-1.08-4.19-2.15-6.08-3.2-1.89-1.05-3.62-2-5.18-2.84-.84,3.01-1.91,7.16-3.2,12.45-1.29,5.29-2.75,11.73-4.37,19.31-1.8,8.54-3.16,15.43-4.06,20.66-.9,5.23-1.35,8.75-1.35,10.56-.36,1.5-.66,3.01-.9,4.51l-3.61,17.77c-2.1,4.09-3.91,7.13-5.41,9.11-1.5,1.98-2.68,2.98-3.52,2.98-.43,0-.82-.34-1.19-1.04s-.73-1.79-1.1-3.29l1.1-5.15c-.18-.36-.37-.87-.55-1.53.36-3.91.7-7.87,1-11.87.3-4,.64-7.99,1-11.96.3-4.45.75-8.63,1.35-12.54.6-3.91,1.26-7.52,1.98-10.83l-1.08-4.6c.42-1.14.8-2.56,1.13-4.24.33-1.68.62-3.61.86-5.77.24-2.77.45-5.01.63-6.72.18-1.71.39-2.9.63-3.56.24-.78.5-1.77.77-2.98.27-1.2.59-2.65.95-4.33.18-.66,1.23-1.94,3.16-3.84,1.92-1.89,3.16-3.32,3.7-4.29,1.26-.18,2.19-.44,2.8-.77.6-.33.9-.77.9-1.31,0-.42-.35-.78-1.04-1.08-.69-.3-1.73-.54-3.11-.72-.66,0-1.43-.07-2.3-.23-.87-.15-1.76-.41-2.66-.77l-7.4-3.61c-1.57-.72-2.77-1.44-3.59-2.17-.82-.72-1.23-1.47-1.23-2.26.36-1.2.67-2.41.91-3.61-.43-1.2-.78-2.19-1.05-2.98-.27-.78-.41-1.38-.41-1.81,0-.54.14-.96.41-1.26.27-.3.65-.45,1.13-.45,1.68.3,3.16.57,4.42.81.6-.18,1.2-.38,1.8-.59.6-.21,1.2-.44,1.8-.68,1.44,0,2.74.11,3.88.32,1.14.21,2.01.44,2.62.68.84.42,1.71.87,2.62,1.35.9.48,1.77.9,2.62,1.26.72-.12,1.68-.27,2.89-.45.36,0,.69.06.99.18.72.48,1.59.92,2.62,1.31,1.02.39,2.19.74,3.52,1.04,1.44.24,2.68.5,3.7.77,1.02.27,1.83.56,2.44.86,6.37,3.31,11.95,6.42,16.73,9.34,4.78,2.92,8.74,5.76,11.86,8.53,4.93,4.27,8.57,8.85,10.92,13.72,2.35,4.87,3.52,9.96,3.52,15.26,0,8.43-2.5,17.36-7.49,26.81-4.99,9.45-12.42,19.38-22.28,29.79.84-.36,1.95-.75,3.34-1.18,1.38-.42,2.98-.94,4.78-1.54,3.79-.84,7.7-1.75,11.73-2.71,2.53-.72,4.66-1.51,6.41-2.35,1.74-.84,3.16-1.84,4.24-2.99Z" fill="#ffeb3b" stroke="#000" stroke-miterlimit="10"/>
        <path d="M86.01,127.37c1.14-1.14,2.87-2.78,5.19-4.92,2.31-2.13,5.25-4.77,8.8-7.89.36-.3,1.26-1.29,2.71-2.98,1.44-1.68,3.52-4.09,6.22-7.22,1.26-1.26,2.8-2.89,4.6-4.87,1.8-1.98,3.85-4.33,6.13-7.04,1.5-2.04,2.99-3.61,4.47-4.69,1.47-1.08,2.9-1.62,4.29-1.62,1.74,0,3.02.44,3.83,1.31.81.87,1.22,2.12,1.22,3.74,0,1.02-.15,2.53-.45,4.51-.3,1.98-.45,3.49-.45,4.51,0,1.68-.26,4.63-.77,8.84-.51,4.21-1.31,9.68-2.39,16.42-.06.42-.2,1.13-.41,2.12-.21.99-.53,2.3-.95,3.92-.36,1.2-.6,2.32-.72,3.34-.12,1.02-.18,1.89-.18,2.62.06.48.09.87.09,1.17,2.95-2.17,5.52-4.18,7.71-6.04,2.19-1.86,4.01-3.61,5.46-5.23l3.61,8.3c-.6.3-4.81,4.03-12.63,11.19-.36,1.08-1.16,2.23-2.39,3.43-1.23,1.2-2.9,2.44-5.01,3.7-.6,1.02-1.32,2.36-2.17,4.01-.84,1.65-1.8,3.59-2.89,5.82-.6,1.62-1.13,3.17-1.58,4.65-.45,1.47-.83,2.78-1.13,3.92-.6,2.41-1.65,5.26-3.16,8.57-1.5,3.31-3.34,7.16-5.5,11.55-2.65,5.23-5.01,9.14-7.08,11.73-2.07,2.58-3.8,3.85-5.19,3.79-1.44-.12-2.6-.23-3.47-.32-.87-.09-1.43-.2-1.67-.32-.54-.36-.92-.98-1.13-1.85-.21-.87-.32-2-.32-3.38,0-.9.15-2.3.45-4.2s.75-4.23,1.35-6.99c.42-1.93.98-3.8,1.67-5.64.69-1.83,1.49-3.65,2.39-5.46.78-1.74,1.59-3.43,2.44-5.05.84-1.62,1.71-3.37,2.62-5.23,1.98-2.41,3.92-5.02,5.82-7.85,1.89-2.83,3.8-5.89,5.73-9.2.36-1.26.74-2.87,1.13-4.83.39-1.95.8-4.29,1.22-6.99.54-2.89.99-5.53,1.35-7.94.3-2.04.56-3.67.77-4.87.21-1.2.29-2.01.23-2.44l-.54-4.69,1.53-4.87c-.24-.72-.56-1.28-.95-1.67-.39-.39-.83-.59-1.31-.59-1.14,0-2.23.3-3.25.9-1.02.6-1.98,1.47-2.89,2.62-1.02,1.38-2.29,2.84-3.79,4.38-1.5,1.53-3.28,3.23-5.32,5.1-2.53,2.29-4.6,4.17-6.22,5.64-1.62,1.47-2.8,2.6-3.52,3.38-.3-.78-.68-1.71-1.13-2.8-.45-1.08-.92-2.35-1.4-3.79-.12-.36-.27-.69-.45-.99-.18-.3-.39-.54-.63-.72ZM143.29,44.02c1.38,0,2.39.3,3.02.9.63.6.95,1.47.95,2.62,0,1.2-.24,2.65-.72,4.33-.48,1.68-1.17,3.55-2.08,5.59-.72,1.68-1.38,3.28-1.98,4.78-.42,1.02-1.82,2.33-4.2,3.92-2.38,1.59-4.17,2.39-5.37,2.39-1.62,0-2.99-.1-4.1-.32-1.11-.21-1.97-.53-2.57-.95-.54-.42-.98-1.19-1.31-2.3-.33-1.11-.5-2.54-.5-4.29,0-2.83,2.4-6.31,7.22-10.46,4.81-4.15,8.69-6.22,11.64-6.22Z" fill="#ffeb3b" stroke="#000" stroke-miterlimit="10"/>
        <path d="M203.98,26.7c2.47-.72,5.16-1.26,8.07-1.62,2.92-.36,6.15-.54,9.7-.54.66,0,1.64.11,2.93.32,1.29.21,2.33.32,3.11.32,1.14.18,2.01.36,2.62.54.66.18,1.56.39,2.71.63l2.53-.72c.54.06,1.13.29,1.76.68.63.39,1.4.83,2.3,1.31.48-.3,1.17-.66,2.08-1.08.9,0,1.64.35,2.21,1.04.57.69.95,1.67,1.13,2.93v2.84c0,.93-.06,1.91-.18,2.93-.06.48-.03,1.23.09,2.26.12,1.02.18,1.8.18,2.35,0,.66-.15,1.14-.45,1.44-.3.3-.69.45-1.17.45-2.29,0-4.54-.19-6.77-.59-2.23-.39-4.45-.98-6.68-1.76-1.93.36-3.61.63-5.05.81-1.14.12-1.98.3-2.53.54-.54.24-.81.54-.81.9.24.42.57.87.99,1.35.42.48.93.93,1.53,1.35.42.3.9.95,1.44,1.94.54.99,1.11,2.33,1.71,4.01.24.66.41,1.29.5,1.89.09.6.14,1.17.14,1.71,0,1.26-.12,2.84-.36,4.74-.24,1.89-.51,3.44-.81,4.65-.54,2.35-.96,4.29-1.26,5.82-.3,1.53-.54,2.69-.72,3.47-.12.6-.21,1.32-.27,2.17-.06.84-.12,1.8-.18,2.89-.06.9-.3,2.03-.72,3.38-.42,1.35-.84,2.9-1.26,4.65,0,.78-.09,1.68-.27,2.71-.18,1.02-.42,2.2-.72,3.52-.18.78-.47,1.67-.86,2.66-.39.99-.77,2.15-1.13,3.47.12.9.21,1.83.27,2.8-.24,1.68-.48,3.43-.72,5.23-.36,2.59-.72,5.2-1.08,7.85-.36,2.65-.69,5.2-.99,7.67-.36.72-.75,1.53-1.17,2.44,0,.42.07,1.07.23,1.94.15.87.23,1.58.23,2.12,0,.66-.12,1.64-.36,2.93-.24,1.29-.36,2.24-.36,2.84,0,1.14-.03,2.92-.09,5.32-.06,2.41-.09,4.21-.09,5.41.3,1.02.57,2.02.81,2.98-.18.84-.38,1.52-.59,2.03-.21.51-.5.92-.86,1.22-1.08.66-2.08,1.2-2.98,1.62-.6.6-1.1,1.08-1.49,1.44-.39.36-.74.54-1.04.54-1.32,0-2.26-.18-2.8-.54-.54-.36-.81-.84-.81-1.44.12-1.99.33-3.91.63-5.77-.12-.24-.26-.6-.41-1.08-.15-.48-.38-1.08-.68-1.8-.3-4.69-.69-9.5-1.17-14.43.18-3.55.27-7.13.27-10.74,0-1.68.07-3.8.23-6.36.15-2.56.44-5.52.86-8.89.42-3.37.72-6.31.9-8.84.18-2.53.27-4.6.27-6.22,0-.72.07-1.64.23-2.75.15-1.11.32-2.48.5-4.1.18-1.38.36-2.63.54-3.74.18-1.11.27-2.12.27-3.02,0-.48-.03-.99-.09-1.53-.06-.54-.12-1.02-.18-1.44.6-1.5,1.05-2.72,1.35-3.65.3-.93.45-1.55.45-1.85-.24-.78-.51-1.56-.81-2.35.36-.84.75-2.36,1.17-4.56.42-2.19.87-5.07,1.35-8.62v-2.62c0-1.02.03-2.26.09-3.7l-.54-1.62c-.24-.12-.68-.27-1.31-.45-.63-.18-1.43-.33-2.39-.45l-1.17.81c-.78.18-1.58.36-2.39.54-.81.18-1.67.39-2.57.63-6.26,1.75-12.45,3.46-18.58,5.14-.48,0-.87-.19-1.17-.59-.3-.39-.45-.92-.45-1.58,0-.36.15-.99.45-1.89.3-.9.78-2.08,1.44-3.52.12-2.1.27-3.85.45-5.23.18-1.38.39-2.44.63-3.16.48-1.32,1.22-2.44,2.21-3.34.99-.9,2.18-1.59,3.56-2.07,2.77-.9,5.35-1.5,7.76-1.8,2.4-.3,4.63-.33,6.68-.09Z" fill="#ffeb3b" stroke="#000" stroke-miterlimit="10"/>
        <path d="M239.06,123.4l8.21-5.41c.3-.3.66-.71,1.08-1.22.42-.51.9-1.25,1.44-2.21.42-.78.98-1.44,1.67-1.98.69-.54,1.49-1.02,2.39-1.44.48-.6,1.17-1.35,2.08-2.26s2.04-1.95,3.43-3.16c.66-.36,1.5-.89,2.53-1.58,1.02-.69,2.13-1.61,3.34-2.75,5.47-5.17,10.27-9.05,14.39-11.64,4.12-2.59,7.59-3.88,10.42-3.88,1.56,0,2.72.33,3.47.99.75.66,1.13,1.59,1.13,2.8,0,1.26-.23,2.38-.68,3.34-.45.96-1.16,1.77-2.12,2.44-1.5,1.08-3.13,2.29-4.87,3.61-.96,1.26-2.14,2.6-3.52,4.01-1.38,1.41-3.01,2.81-4.87,4.2-.6.78-1.11,1.47-1.53,2.07-.3.3-.87.84-1.71,1.62-.84.78-1.96,1.68-3.34,2.71-.6,1.32-1.91,3.04-3.92,5.14-2.02,2.11-4.71,4.63-8.07,7.58-.42.42-1.17,1.38-2.26,2.89-1.08,1.5-2.5,3.49-4.24,5.95l.63.81c1.32-.42,2.71-1.14,4.15-2.17,1.44-1.02,3.04-2.38,4.78-4.06,2.04-1.86,3.71-3.38,5.01-4.56,1.29-1.17,2.21-1.94,2.75-2.3.42-.24.84-.48,1.26-.72.42-.24.9-.54,1.44-.9,2.77-3.31,5.35-5.76,7.76-7.35,2.4-1.59,4.63-2.39,6.68-2.39,1.26,0,2.22.5,2.89,1.49.66.99,1.05,2.48,1.17,4.47-.12,3.01-.18,5.9-.18,8.66-.06,1.93.46,3.65,1.58,5.19,1.11,1.53,2.57,2.3,4.38,2.3.54,0,1.07-.15,1.58-.45.51-.3,1.04-.69,1.58-1.17.42-.54.83-1.05,1.22-1.53.39-.48.8-.96,1.22-1.44.24-.12.59-.33,1.04-.63.45-.3.89-.66,1.31-1.08.84,1.8,1.55,3.38,2.12,4.74.57,1.35,1.01,2.54,1.31,3.56-1.38,1.26-2.75,2.57-4.1,3.92-1.35,1.35-2.78,2.63-4.29,3.83-1.8,1.38-3.55,2.42-5.23,3.11-1.68.69-3.37,1.04-5.05,1.04-3.91,0-6.92-1.11-9.02-3.34-2.11-2.22-3.34-5.59-3.7-10.1,0-.54-.08-1.1-.23-1.67-.15-.57-.47-1.16-.95-1.76-.3.3-.63.62-.99.95-.36.33-.78.77-1.26,1.31-.78.6-1.76,1.35-2.93,2.25s-2.54,1.98-4.1,3.25c-2.11,2.17-3.88,3.94-5.32,5.32-1.44,1.38-2.47,2.38-3.07,2.98-1.2,1.02-2.6,2.04-4.2,3.07-1.59,1.02-3.38,2.08-5.37,3.16-1.26.66-2.35,1.19-3.25,1.58s-1.56.59-1.98.59c-2.89,0-5.02-.71-6.4-2.12-1.38-1.41-2.08-3.59-2.08-6.54,0-1.62.35-3.17,1.04-4.65.69-1.47,1.73-2.9,3.11-4.29.12-.78.18-1.41.18-1.89,0-.3-.08-.62-.23-.95-.15-.33-.35-.71-.59-1.13-.36-.84-.77-1.79-1.22-2.84-.45-1.05-.95-2.18-1.49-3.38.24-.24.59-.71,1.04-1.4.45-.69.98-1.55,1.58-2.57Z" fill="#ffeb3b" stroke="#000" stroke-miterlimit="10"/>
        <path d="M305,127.37l.36-.72c.36-.48.83-1.08,1.4-1.8.57-.72,1.25-1.56,2.03-2.53,4.27-3.97,8.43-8.71,12.49-14.21s8.07-11.83,12.04-18.99c.48-.66,1.02-1.53,1.62-2.62.6-1.08,1.26-2.44,1.98-4.06,0-.36-.09-.63-.27-.81-.18-.18-.48-.27-.9-.27-.36,0-.95.11-1.76.32-.81.21-1.43.32-1.85.32h-11.28c-.48,0-1.28-.03-2.39-.09-1.11-.06-1.91-.09-2.39-.09-.6-.3-1.16-.56-1.67-.77-.51-.21-1.01-.44-1.49-.68-.72-.24-1.28-.56-1.67-.95-.39-.39-.59-.86-.59-1.4,0-3.85.41-6.8,1.22-8.84.81-2.04,2.06-3.07,3.75-3.07s3.26.08,4.74.23c1.47.15,2.78.35,3.93.59.9-.18,1.74-.36,2.53-.54,1.62,0,3.01.06,4.15.18,1.14.12,2.02.27,2.62.45.78-.18,1.55-.35,2.3-.5.75-.15,1.58-.32,2.48-.5l2.98.9c2.11-.24,4.35-3.19,6.73-8.84,2.38-5.65,4.92-8.48,7.63-8.48,1.44,0,2.56.45,3.34,1.35.78.9,1.17,2.23,1.17,3.97,0,1.38-.41,3.2-1.22,5.46-.81,2.26-1.28,3.96-1.4,5.1.12.24.28.5.49.77.21.27.52.59.93.95.35.24.61.65.75,1.22.15.57.22,1.28.22,2.12,0,3.61-.16,6.39-.49,8.34-.33,1.96-.85,2.96-1.57,3.02l-6.12,1.26c-.12.6-.27,1.34-.45,2.21-.18.87-.42,1.88-.72,3.02-1.02,3.01-2.17,6.83-3.44,11.46-1.27,4.63-2.68,10.1-4.25,16.42-.97,5.05-1.7,9.14-2.22,12.27-.51,3.13-.77,5.23-.77,6.32,0,.96.15,1.68.45,2.17.3.48.75.72,1.35.72.36,0,1.67-.87,3.92-2.62,2.25-1.74,5.4-4.33,9.43-7.76l3.52,8.3c-.6.66-1.44,1.44-2.53,2.35s-2.38,1.87-3.88,2.89c-.6.66-1.35,1.4-2.26,2.21-.9.81-1.89,1.76-2.98,2.84-1.08,1.2-2.15,2.41-3.2,3.61-1.05,1.2-2.12,2.38-3.2,3.52-1.44,1.56-2.86,2.69-4.24,3.38-1.38.69-2.68,1.04-3.88,1.04-2.65,0-4.62-.78-5.91-2.35-1.29-1.56-1.94-3.94-1.94-7.13,0-3.49.12-6.51.36-9.07.24-2.56.63-4.62,1.17-6.18.24-.48.42-.9.54-1.26,0-.6.09-1.41.27-2.44.18-1.02.39-2.22.63-3.61.36-2.35.75-4.69,1.17-7.04.66-1.44,1.35-2.98,2.08-4.6,0-.3-.24-.57-.72-.81l-.9.54c-.9,1.44-2.08,2.96-3.52,4.56-1.44,1.59-3.16,3.26-5.14,5.01-3.07,2.95-6.2,5.92-9.38,8.93-.18.3-.51.75-.99,1.35-.48.6-1.02,1.35-1.62,2.25-.3-.72-.68-1.64-1.13-2.75-.45-1.11-.92-2.39-1.4-3.83-.12-.36-.27-.69-.45-.99-.18-.3-.39-.54-.63-.72Z" fill="#ffeb3b" stroke="#000" stroke-miterlimit="10"/>
        <path d="M357.31,123.4l8.21-5.41c.3-.3.66-.71,1.08-1.22.42-.51.9-1.25,1.44-2.21.42-.78.98-1.44,1.67-1.98.69-.54,1.49-1.02,2.39-1.44.48-.6,1.17-1.35,2.08-2.26s2.04-1.95,3.43-3.16c.66-.36,1.5-.89,2.53-1.58,1.02-.69,2.13-1.61,3.34-2.75,5.47-5.17,10.27-9.05,14.39-11.64,4.12-2.59,7.59-3.88,10.42-3.88,1.56,0,2.72.33,3.47.99.75.66,1.13,1.59,1.13,2.8,0,1.26-.23,2.38-.68,3.34-.45.96-1.16,1.77-2.12,2.44-1.5,1.08-3.13,2.29-4.87,3.61-.96,1.26-2.14,2.6-3.52,4.01-1.38,1.41-3.01,2.81-4.87,4.2-.6.78-1.11,1.47-1.53,2.07-.3.3-.87.84-1.71,1.62-.84.78-1.96,1.68-3.34,2.71-.6,1.32-1.91,3.04-3.92,5.14-2.02,2.11-4.71,4.63-8.07,7.58-.42.42-1.17,1.38-2.26,2.89-1.08,1.5-2.5,3.49-4.24,5.95l.63.81c1.32-.42,2.71-1.14,4.15-2.17,1.44-1.02,3.04-2.38,4.78-4.06,2.04-1.86,3.71-3.38,5.01-4.56,1.29-1.17,2.21-1.94,2.75-2.3.42-.24.84-.48,1.26-.72.42-.24.9-.54,1.44-.9,2.77-3.31,5.35-5.76,7.76-7.35,2.4-1.59,4.63-2.39,6.68-2.39,1.26,0,2.22.5,2.89,1.49.66.99,1.05,2.48,1.17,4.47-.12,3.01-.18,5.9-.18,8.66-.06,1.93.46,3.65,1.58,5.19,1.11,1.53,2.57,2.3,4.38,2.3.54,0,1.07-.15,1.58-.45.51-.3,1.04-.69,1.58-1.17.42-.54.83-1.05,1.22-1.53.39-.48.8-.96,1.22-1.44.24-.12.59-.33,1.04-.63.45-.3.89-.66,1.31-1.08.84,1.8,1.55,3.38,2.12,4.74.57,1.35,1.01,2.54,1.31,3.56-1.38,1.26-2.75,2.57-4.1,3.92-1.35,1.35-2.78,2.63-4.29,3.83-1.8,1.38-3.55,2.42-5.23,3.11-1.68.69-3.37,1.04-5.05,1.04-3.91,0-6.92-1.11-9.02-3.34-2.11-2.22-3.34-5.59-3.7-10.1,0-.54-.08-1.1-.23-1.67-.15-.57-.47-1.16-.95-1.76-.3.3-.63.62-.99.95-.36.33-.78.77-1.26,1.31-.78.6-1.76,1.35-2.93,2.25s-2.54,1.98-4.1,3.25c-2.11,2.17-3.88,3.94-5.32,5.32-1.44,1.38-2.47,2.38-3.07,2.98-1.2,1.02-2.6,2.04-4.2,3.07-1.59,1.02-3.38,2.08-5.37,3.16-1.26.66-2.35,1.19-3.25,1.58s-1.56.59-1.98.59c-2.89,0-5.02-.71-6.4-2.12-1.38-1.41-2.08-3.59-2.08-6.54,0-1.62.35-3.17,1.04-4.65.69-1.47,1.73-2.9,3.11-4.29.12-.78.18-1.41.18-1.89,0-.3-.08-.62-.23-.95-.15-.33-.35-.71-.59-1.13-.36-.84-.77-1.79-1.22-2.84-.45-1.05-.95-2.18-1.49-3.38.24-.24.59-.71,1.04-1.4.45-.69.98-1.55,1.58-2.57Z" fill="#ffeb3b" stroke="#000" stroke-miterlimit="10"/>
        <path d="M440.56,64.86c-.18-1.2-.39-2.47-.63-3.79,0,.54.09.12.27-1.26.18-1.38.42-3.76.72-7.13.48-.66.83-1.25,1.04-1.76.21-.51.41-.98.59-1.4-.54-.66-.95-1.22-1.22-1.67-.27-.45-.41-.83-.41-1.13.48-3.67.93-7.16,1.35-10.46.06-.9.59-1.92,1.58-3.07.99-1.14,2.36-2.38,4.1-3.7,1.38-1.14,2.74-2.1,4.06-2.89,1.32-.78,2.59-1.41,3.79-1.89,1.62-.54,2.58-.99,2.89-1.35.3-.36.63-.54.99-.54.96,0,1.7.48,2.21,1.44.51.96.77,2.41.77,4.33,0,1.02-.26,2.44-.77,4.24-.51,1.8-.77,3.13-.77,3.97,0,.36.04,1.75.14,4.15.09,2.41.23,5.86.41,10.37.06,3.25.53,6.71,1.4,10.37.87,3.67,2,7.49,3.39,11.46,1.87,5.17,3.88,9.04,6.05,11.59,2.17,2.56,4.54,3.83,7.13,3.83,2.05,0,4.75-1.32,8.12-3.97,3.37-2.65,7.34-6.62,11.92-11.91,3.49-4.09,6.61-7.91,9.34-11.46,2.74-3.55,4.95-6.8,6.63-9.74,1.56-2.65,3.4-5.02,5.51-7.13,2.11-2.1,4.51-4.03,7.22-5.77.84-.48,1.53-.87,2.08-1.17.54-.3.96-.45,1.26-.45,1.07,0,1.88.81,2.45,2.44.56,1.62.85,4.03.85,7.22-.36,2.95-.66,5.86-.9,8.75-.54,4.51-1.34,9.2-2.39,14.07-1.05,4.87-2.42,9.92-4.1,15.16-.84,2.65-1.56,4.96-2.16,6.95-.6,1.98-1.02,3.67-1.26,5.05-.12.78-.29,1.76-.5,2.93-.21,1.17-.44,2.54-.67,4.1-.6,1.5-1.26,3.01-1.98,4.51-.6,1.2-1.1,2.65-1.49,4.33-.39,1.68-.74,3.64-1.03,5.86,0,.42-.03.96-.09,1.62-.06.66-.12,1.35-.18,2.08-1.38,6.13-2.79,12.09-4.23,17.86-.12.54-.39,1.23-.81,2.08-.78.24-1.67.75-2.66,1.53-.99.78-2.03,1.87-3.11,3.25-1.08,1.2-1.98,2.09-2.7,2.66-.72.57-1.26.86-1.62.86-.48,0-.87-.15-1.17-.45-.3-.3-.45-.81-.45-1.53.06-.48.15-.87.27-1.17.84-2.04,1.58-4.99,2.21-8.84.63-3.85,1.22-8.6,1.76-14.25.06-1.2.54-4.45,1.44-9.74.9-5.29,2.22-12.63,3.97-22.01.24-1.5.56-3.35.95-5.55.39-2.19.89-4.71,1.49-7.53.42-1.44.77-2.69,1.04-3.74.27-1.05.41-1.82.41-2.3,0-.6-.11-1.04-.32-1.31-.21-.27-.53-.41-.95-.41-.36,0-1.02.47-1.99,1.4-.96.93-2.17,2.33-3.61,4.19-.84,1.02-1.7,2.11-2.57,3.25-.87,1.14-1.79,2.26-2.75,3.34-1.63,1.68-3.13,3.28-4.52,4.78l-6.68,6.68c-.6.36-1.34.81-2.21,1.35-.87.54-1.91,1.17-3.11,1.89-1.14,1.8-2.97,3.35-5.46,4.65-2.5,1.29-4.8,1.94-6.91,1.94-2.53,0-4.95-.8-7.27-2.39-2.32-1.59-4.56-4.04-6.72-7.35-.96-1.62-1.91-3.25-2.84-4.87-.93-1.62-1.94-3.25-3.02-4.87l-.45.09c-.3.36-.86,2.8-1.67,7.31-.81,4.51-1.85,11.13-3.11,19.85-1.38,8.96-2.44,16-3.16,21.11-.72,5.11-1.08,8.42-1.08,9.92-.12,2.04-.5,3.62-1.13,4.74-.63,1.11-1.61,1.76-2.93,1.94-.66.06-1.59.23-2.8.5-1.2.27-2.65.62-4.33,1.04-.3-.06-.57-.17-.81-.32-.24-.15-.36-.38-.36-.68l.54-3.34-.9-3.43c.36-1.86.72-3.67,1.08-5.41.24-3.61.45-7.01.63-10.19.06-.66.28-1.77.68-3.34.39-1.56.59-2.74.59-3.52,0-.42-.09-1.04-.27-1.85-.18-.81-.27-1.43-.27-1.85,0-3.31.53-8.21,1.58-14.71,1.05-6.5,1.58-11.43,1.58-14.79-.18-1.38-.39-2.77-.63-4.15.3-2.17.78-4.87,1.44-8.12.66-3.25,1.41-7.04,2.26-11.37Z" fill="#ffeb3b" stroke="#000" stroke-miterlimit="10"/>
        <path d="M532.38,127.37c.42-.42.86-.98,1.31-1.67.45-.69.98-1.46,1.58-2.3l6.95-4.78c.84-1.02,2.13-2.33,3.88-3.92,1.74-1.59,3.91-3.53,6.5-5.82.3-.66.8-1.43,1.49-2.3.69-.87,1.52-1.73,2.48-2.57.84-.78,1.68-1.52,2.53-2.21.84-.69,1.62-1.37,2.35-2.03.9-.9,1.76-1.8,2.57-2.71.81-.9,1.64-1.77,2.48-2.62.96-.84,1.95-1.5,2.98-1.98,1.02-.48,2.13-.72,3.34-.72,1.32,0,2.33.17,3.02.5.69.33,1.07.8,1.13,1.4-.6,1.38-1.23,2.77-1.89,4.15l.54.81c2.65-1.02,4.72-1.77,6.22-2.26,1.5-.48,2.46-.72,2.89-.72,4.39,0,7.68,1.34,9.88,4.01,2.2,2.68,3.29,6.72,3.29,12.13,0,1.02-.12,2.23-.36,3.61-.24,1.38-.63,2.89-1.17,4.51-.6,1.8-1.25,3.31-1.94,4.51-.69,1.2-1.34,2.08-1.94,2.62.24.78.51,1.34.81,1.67.3.33.69.5,1.17.5s.98-.15,1.49-.45c.51-.3,1.13-.75,1.85-1.35.6,1.32,1.19,2.69,1.76,4.1.57,1.41,1.16,2.81,1.76,4.2-1.08.96-2.14,1.89-3.16,2.8-1.02.9-2.11,1.77-3.25,2.62-1.38,1.14-2.69,1.97-3.92,2.48-1.23.51-2.45.77-3.65.77-1.38,0-2.53-.33-3.43-.99-.9-.66-1.62-1.59-2.17-2.8-1.5,1.99-3.32,3.8-5.46,5.46-2.14,1.66-4.5,3.02-7.08,4.11-1.5.72-2.87,1.28-4.1,1.67-1.23.39-2.36.59-3.38.59-.3,0-.89.12-1.76.36-.87.24-1.58.36-2.12.36-3.43,0-6.53-1.44-9.29-4.33-2.77-2.89-4.15-6.1-4.15-9.65,0-1.44.33-3.35.99-5.73.66-2.38.99-3.77.99-4.19s-.14-.77-.41-1.04c-.27-.27-.65-.41-1.13-.41-.3,0-1.02.45-2.17,1.35-1.14.9-2.77,2.2-4.87,3.88-.18.24-.39.6-.63,1.08-.24.48-.63,1.02-1.17,1.62-.48-1.38-1.02-2.78-1.62-4.2-.6-1.41-1.26-2.78-1.98-4.1ZM575.78,110.86c-.3.06-.74.38-1.31.95-.57.57-1.13,1.28-1.67,2.12-.84,1.38-1.8,2.89-2.89,4.51-.66.72-1.37,1.28-2.12,1.67-.75.39-1.61.68-2.57.86-.6.06-1.23.65-1.89,1.76-.66,1.11-1.32,2.72-1.98,4.83-.66,1.87-1.14,3.46-1.44,4.78-.3,1.32-.45,2.44-.45,3.34,0,1.68.42,2.95,1.26,3.79.84.84,2.13,1.26,3.88,1.26,2.77,0,5.31-.77,7.62-2.3,2.32-1.53,4.5-3.83,6.54-6.9.96-1.14,1.86-2.22,2.71-3.25.48-.36.87-.95,1.17-1.76.3-.81.6-1.82.9-3.02l1.62-5.14c-.54-1.8-1.05-3.23-1.53-4.29-.48-1.05-.96-1.7-1.44-1.94-.3-.18-.96-.37-1.98-.59-1.02-.21-2.5-.44-4.42-.68Z" fill="#ffeb3b" stroke="#000" stroke-miterlimit="10"/>
        <path d="M597.05,127.37l.36-.72c.36-.48.83-1.08,1.4-1.8.57-.72,1.25-1.56,2.03-2.53,4.27-3.97,8.44-8.71,12.5-14.21s8.07-11.83,12.04-18.99c.48-.66,1.02-1.53,1.62-2.62.6-1.08,1.26-2.44,1.98-4.06,0-.36-.09-.63-.27-.81-.18-.18-.48-.27-.9-.27-.36,0-.95.11-1.76.32-.81.21-1.43.32-1.85.32h-11.28c-.48,0-1.28-.03-2.39-.09-1.11-.06-1.91-.09-2.39-.09-.6-.3-1.16-.56-1.67-.77-.51-.21-1.01-.44-1.49-.68-.72-.24-1.28-.56-1.67-.95-.39-.39-.59-.86-.59-1.4,0-3.85.41-6.8,1.22-8.84.81-2.04,2.06-3.07,3.75-3.07s3.26.08,4.74.23c1.47.15,2.78.35,3.93.59.9-.18,1.74-.36,2.53-.54,1.62,0,3.01.06,4.15.18,1.14.12,2.02.27,2.62.45.78-.18,1.55-.35,2.3-.5.75-.15,1.58-.32,2.48-.5l2.98.9c2.11-.24,4.35-3.19,6.73-8.84,2.38-5.65,4.92-8.48,7.63-8.48,1.44,0,2.56.45,3.34,1.35.78.9,1.17,2.23,1.17,3.97,0,1.38-.41,3.2-1.22,5.46-.81,2.26-1.28,3.96-1.4,5.1.12.24.28.5.49.77.21.27.52.59.93.95.36.24.61.65.75,1.22.15.57.22,1.28.22,2.12,0,3.61-.17,6.39-.49,8.34-.33,1.96-.85,2.96-1.57,3.02l-6.12,1.26c-.12.6-.27,1.34-.45,2.21-.18.87-.42,1.88-.72,3.02-1.02,3.01-2.17,6.83-3.43,11.46-1.27,4.63-2.68,10.1-4.25,16.42-.97,5.05-1.7,9.14-2.22,12.27-.51,3.13-.77,5.23-.77,6.32,0,.96.15,1.68.45,2.17.3.48.75.72,1.35.72.36,0,1.67-.87,3.92-2.62,2.26-1.74,5.4-4.33,9.43-7.76l3.52,8.3c-.6.66-1.44,1.44-2.53,2.35s-2.38,1.87-3.88,2.89c-.6.66-1.35,1.4-2.26,2.21-.9.81-1.89,1.76-2.98,2.84-1.08,1.2-2.15,2.41-3.2,3.61-1.05,1.2-2.12,2.38-3.2,3.52-1.44,1.56-2.86,2.69-4.24,3.38-1.38.69-2.68,1.04-3.88,1.04-2.65,0-4.62-.78-5.91-2.35-1.29-1.56-1.94-3.94-1.94-7.13,0-3.49.12-6.51.36-9.07.24-2.56.63-4.62,1.17-6.18.24-.48.42-.9.54-1.26,0-.6.09-1.41.27-2.44.18-1.02.39-2.22.63-3.61.36-2.35.75-4.69,1.17-7.04.66-1.44,1.35-2.98,2.08-4.6,0-.3-.24-.57-.72-.81l-.9.54c-.9,1.44-2.08,2.96-3.52,4.56-1.44,1.59-3.16,3.26-5.14,5.01-3.07,2.95-6.2,5.92-9.38,8.93-.18.3-.51.75-.99,1.35-.48.6-1.02,1.35-1.62,2.25-.3-.72-.68-1.64-1.13-2.75-.45-1.11-.92-2.39-1.4-3.83-.12-.36-.27-.69-.45-.99-.18-.3-.39-.54-.63-.72Z" fill="#ffeb3b" stroke="#000" stroke-miterlimit="10"/>
        <path d="M646.48,127.37c.42-.42.86-.98,1.31-1.67.45-.69.98-1.46,1.58-2.3l6.95-4.78c.84-1.02,2.13-2.33,3.88-3.92,1.74-1.59,3.91-3.53,6.5-5.82.3-.66.8-1.43,1.49-2.3.69-.87,1.52-1.73,2.48-2.57.84-.78,1.68-1.52,2.53-2.21.84-.69,1.62-1.37,2.35-2.03.9-.9,1.76-1.8,2.57-2.71.81-.9,1.64-1.77,2.48-2.62.96-.84,1.95-1.5,2.98-1.98,1.02-.48,2.13-.72,3.34-.72,1.32,0,2.33.17,3.02.5.69.33,1.07.8,1.13,1.4-.6,1.38-1.23,2.77-1.89,4.15l.54.81c2.65-1.02,4.72-1.77,6.22-2.26,1.5-.48,2.46-.72,2.89-.72,4.39,0,7.68,1.34,9.88,4.01,2.2,2.68,3.29,6.72,3.29,12.13,0,1.02-.12,2.23-.36,3.61-.24,1.38-.63,2.89-1.17,4.51-.6,1.8-1.25,3.31-1.94,4.51-.69,1.2-1.34,2.08-1.94,2.62.24.78.51,1.34.81,1.67.3.33.69.5,1.17.5s.98-.15,1.49-.45c.51-.3,1.13-.75,1.85-1.35.6,1.32,1.19,2.69,1.76,4.1.57,1.41,1.16,2.81,1.76,4.2-1.08.96-2.14,1.89-3.16,2.8-1.02.9-2.11,1.77-3.25,2.62-1.38,1.14-2.69,1.97-3.92,2.48-1.23.51-2.45.77-3.65.77-1.38,0-2.53-.33-3.43-.99-.9-.66-1.62-1.59-2.17-2.8-1.5,1.99-3.32,3.8-5.46,5.46-2.14,1.66-4.5,3.02-7.08,4.11-1.5.72-2.87,1.28-4.1,1.67-1.23.39-2.36.59-3.38.59-.3,0-.89.12-1.76.36-.87.24-1.58.36-2.12.36-3.43,0-6.53-1.44-9.29-4.33-2.77-2.89-4.15-6.1-4.15-9.65,0-1.44.33-3.35.99-5.73.66-2.38.99-3.77.99-4.19s-.14-.77-.41-1.04c-.27-.27-.65-.41-1.13-.41-.3,0-1.02.45-2.17,1.35-1.14.9-2.77,2.2-4.87,3.88-.18.24-.39.6-.63,1.08-.24.48-.63,1.02-1.17,1.62-.48-1.38-1.02-2.78-1.62-4.2-.6-1.41-1.26-2.78-1.99-4.1ZM689.87,110.86c-.3.06-.74.38-1.31.95-.57.57-1.13,1.28-1.67,2.12-.84,1.38-1.8,2.89-2.89,4.51-.66.72-1.37,1.28-2.12,1.67-.75.39-1.61.68-2.57.86-.6.06-1.23.65-1.89,1.76-.66,1.11-1.32,2.72-1.98,4.83-.66,1.87-1.14,3.46-1.44,4.78-.3,1.32-.45,2.44-.45,3.34,0,1.68.42,2.95,1.26,3.79.84.84,2.13,1.26,3.88,1.26,2.77,0,5.31-.77,7.62-2.3,2.32-1.53,4.5-3.83,6.54-6.9.96-1.14,1.86-2.22,2.71-3.25.48-.36.87-.95,1.17-1.76.3-.81.6-1.82.9-3.02l1.62-5.14c-.54-1.8-1.05-3.23-1.53-4.29-.48-1.05-.96-1.7-1.44-1.94-.3-.18-.96-.37-1.98-.59-1.02-.21-2.5-.44-4.42-.68Z" fill="#ffeb3b" stroke="#000" stroke-miterlimit="10"/>
      </g>
    </g>
  </g>
</svg>