    <svg
      id="visual"
      viewBox="0 0 1200 100"
      width="1200"
      height="100"
      xmlns="http://www.w3.org/2000/svg"
      version="1.1"
      preserveAspectRatio="none"
  
    >
      <path
        d="M0 81L33.3 78.7C66.7 76.3 133.3 71.7 200 62C266.7 52.3 333.3 37.7 400 32.3C466.7 27 533.3 31 600 41.5C666.7 52 733.3 69 800 65.5C866.7 62 933.3 38 1000 33.2C1066.7 28.3 1133.3 42.7 1166.7 49.8L1200 57L1200 0L1166.7 0C1133.3 0 1066.7 0 1000 0C933.3 0 866.7 0 800 0C733.3 0 666.7 0 600 0C533.3 0 466.7 0 400 0C333.3 0 266.7 0 200 0C133.3 0 66.7 0 33.3 0L0 0Z"
        fill="#currentColor"
        stroke-linecap="round"
        stroke-linejoin="miter"
      ></path>
    </svg>